<?xml version="1.0" standalone="no"?>
<!DOCTYPE svg PUBLIC "-//W3C//DTD SVG 1.1//EN" "http://www.w3.org/Graphics/SVG/1.1/DTD/svg11.dtd" >
<svg xmlns="http://www.w3.org/2000/svg">
<metadata>
This is a custom SVG webfont generated by Font Squirrel.
Copyright   : Created by Mathieu Gabiot with FontForge 20 httpfontforgesfnet  Brussels  2009
Designer    : Mathieu Gabiot
</metadata>
<defs>
<font id="LogisosoMedium" horiz-adv-x="921" >
<font-face units-per-em="2048" ascent="1638" descent="-410" />
<missing-glyph horiz-adv-x="634" />
<glyph unicode=" "  horiz-adv-x="634" />
<glyph unicode="&#x09;" horiz-adv-x="634" />
<glyph unicode="&#xa0;" horiz-adv-x="634" />
<glyph unicode="!" horiz-adv-x="532" d="M178 86q0 37 25.5 61.5t61.5 24.5t60.5 -24.5t24.5 -61.5t-24.5 -61.5t-60.5 -24.5t-61.5 24.5t-25.5 61.5zM178 303v1116q0 12 15 13h145q16 0 16 -13v-1116q0 -14 -16 -14h-145q-15 0 -15 14z" />
<glyph unicode="&#x22;" d="M267 1327q-9 35 9.5 64.5t53.5 38t64.5 -10t38.5 -53.5t-9 -63l-74 -123q-4 -4 -10 -4h-14q-10 0 -11 10v76q0 6 -6 10l-4 2q-29 18 -38 53zM488.5 1327q-9.5 35 9 64.5t53.5 38t64.5 -10t39 -53.5t-9.5 -63l-74 -123q-4 -4 -10 -4h-14q-10 0 -10 10v76q0 6 -7 10l-4 2 q-28 18 -37.5 53z" />
<glyph unicode="#" d="M100 465v151q0 14 15 15h98l23 155h-121q-14 0 -15 15v151q0 14 15 15h149l70 456q2 8 14 9h164h4q12 -4 10 -19l-69 -446h104l70 456q2 8 14 9h164h4q12 -4 10 -19l-69 -446h53q14 0 14 -15v-151q0 -14 -14 -15h-80l-25 -155h105q14 0 14 -15v-151q0 -14 -14 -14h-133 l-68 -443q-2 -8 -12 -8h-164h-4q-12 4 -10 18l65 433h-104l-68 -443q-2 -8 -12 -8h-164h-4q-12 4 -10 18l65 433h-69q-15 0 -15 14zM406 631h104l22 155h-102z" />
<glyph unicode="$" d="M102 348q0 -145 113 -250q72 -68 158 -88v-190q0 -12 12 -13h154q12 0 12 13v190q98 25 170 103q102 109 98 256q-2 74 -33 141q-33 68 -88 117l-356 313q-55 49 -59 125q-4 74 45 129t122.5 59t129.5 -45q37 -33 59 -125q2 -8 12 -8h158q10 0 10 10q0 143 -112 250 q-70 66 -156 88v181q0 10 -12 10h-154q-12 0 -12 -10v-181q-98 -25 -172 -104q-102 -106 -99 -256q2 -74 33 -141q33 -68 88 -117l357 -313q55 -49 59 -123t-45 -129.5t-123 -60.5t-129 46q-43 37 -59 123q-2 10 -13 10h-157q-11 0 -11 -10z" />
<glyph unicode="%" d="M96 -16l545 1450h180l-545 -1450h-180zM96 1253q0 74 53.5 127.5t128 53.5t128 -53.5t53.5 -127.5q0 -76 -53.5 -129t-128 -53t-128 53t-53.5 129zM231 1253.5q0 -18.5 13.5 -32t33 -13.5t33 13.5t13.5 32t-13.5 31.5t-33 13t-33 -13t-13.5 -31.5zM459 164q0 76 53 129 t128 53t128 -53t53 -129t-53 -127t-128 -51t-128 51t-53 127zM594 163.5q0 -18.5 13.5 -31.5t32.5 -13t32.5 13t13.5 31.5t-13.5 32t-32.5 13.5t-32.5 -13.5t-13.5 -32z" />
<glyph unicode="&#x26;" d="M96 362v93v88v94q0 160 119 266l-45 103q-29 61 -29 129q0 129 91.5 221t218.5 96h8h8q10 0 16 -2h9q8 0 14 -2h4q8 -2 10 -2t8.5 -2t10.5 -2l12 -4q10 -2 20 -6q6 -2 10.5 -4.5t11.5 -5.5t9 -5q16 -8 29 -16l10 -6l16 -13l9 -8q12 -10 24 -22q86 -92 86 -217h-180 q0 55 -40 95t-96.5 40t-96 -40t-39.5 -95q0 -31 12 -60h2l39 -86l76 -172l188 -416v234h182v-273q-2 -117 -69 -212l69 -150h-200l-15 31q-70 -31 -149 -31q-150 0 -256.5 105t-106.5 257zM279 362q0 -76 53 -129t127 -53q39 0 76 17l-236 522q-20 -39 -20 -82v-94v-88v-93z " />
<glyph unicode="'" horiz-adv-x="532" d="M182 1327q-8 35 11.5 64.5t53.5 38t64.5 -10t38.5 -53.5t-10 -63l-76 -123q-2 -4 -10 -4h-12q-12 0 -13 10v76q0 6 -4 10l-4 2q-31 18 -39 53z" />
<glyph unicode="(" d="M264 705q14 -383 207 -701q8 -12 21 -4l131 78q12 6 4 20q-182 279 -185 607q-6 332 183 616q8 12 -4 18l-129 78q-12 8 -21 -4q-217 -364 -207 -708z" />
<glyph unicode=")" d="M295 102q182 279 184 607q6 332 -182 616q-8 12 4 18l129 78q12 8 21 -4q217 -365 206 -708q-14 -383 -206 -701q-8 -12 -21 -4l-131 78q-12 6 -4 20z" />
<glyph unicode="*" d="M152 1221l172 100l-172 98l67 119l172 -100v200h137v-200l172 100l68 -119l-172 -98l172 -100l-68 -119l-172 100v-201h-137v201l-172 -100z" />
<glyph unicode="+" d="M186 453v182h183v180h180v-180h182v-182h-182v-183h-180v183h-183z" />
<glyph unicode="," horiz-adv-x="532" d="M174 88q0 37 26.5 63.5t64.5 26.5t64.5 -26.5t26.5 -63.5q0 -12 -4 -25l-41 -155h-47v92q-37 0 -63.5 25.5t-26.5 62.5z" />
<glyph unicode="-" d="M186 453v182h545v-182h-545z" />
<glyph unicode="." horiz-adv-x="190" d="M4 89q0 38 26.5 64.5t64.5 26.5t64.5 -26.5t26.5 -63.5q0 -10 -2 -18q-6 -31 -31.5 -51.5t-56.5 -20.5q-39 0 -65.5 25.5t-26.5 63.5z" />
<glyph unicode="/" d="M119 18l491 1405q2 8 15 9h163h5q14 -4 10 -19l-494 -1405q-2 -8 -12 -8h-164h-4q-14 4 -10 18z" />
<glyph unicode="0" d="M102 358v717q0 70 28 136.5t78 116.5t116.5 77t136 27t136.5 -27t117 -77t77.5 -116.5t27.5 -136.5v-717q0 -72 -27.5 -137t-77.5 -115.5t-117 -78t-136.5 -27.5t-136 27.5t-116.5 78t-78 115.5t-28 137zM281 358q0 -76 53 -127q51 -51 127 -51q74 0 127 51q51 51 51 127 v717q0 74 -52 126t-126 52t-127 -52t-53 -126v-717z" />
<glyph unicode="1" d="M303 1030v160q0 8 8 10q72 25 120 88.5t52 138.5q0 10 11 11h157q12 0 13 -11v-1417q0 -10 -13 -10h-157q-10 0 -11 10v1063q0 6 -6 9t-10 -1q-70 -45 -152 -61q-4 0 -8 3t-4 7z" />
<glyph unicode="2" d="M104 10v166q0 2 2 6l506 797q27 39 29 88t-20.5 91t-64.5 67.5t-89 27.5t-90 -21.5t-67.5 -64.5t-25.5 -90t21 -90q6 -8 -2 -14l-133 -86q-10 -4 -16 4q-47 82 -48.5 181t47 181t134.5 131.5t181 48.5t180 -53.5t130 -135.5t41 -182t-55 -179l-436 -688q-4 -4 -1 -10.5 t9 -6.5h473q10 0 10 -10v-158q0 -10 -10 -10h-694q-11 0 -11 10z" />
<glyph unicode="3" d="M104 1266v157q0 10 11 11h694q12 0 12 -11v-166q0 -2 -2 -6l-239 -366q-2 -4 0 -9.5t6 -7.5q102 -41 168.5 -139t66.5 -209v-143q0 -131 -81 -233.5t-207.5 -132t-245.5 24.5t-178 169q-4 10 6 16l141 68q10 4 14 -6q31 -57 94.5 -85t127 -11.5t106.5 70.5t43 120v143 q0 82 -57.5 139.5t-139.5 57.5h-73q-12 0 -13 10v143q0 4 2 7l236 360q4 6 0 12t-8 6h-473q-11 1 -11 11z" />
<glyph unicode="4" d="M102 297v168v2l248 958q2 8 10 9h164q4 0 8.5 -5.5t2.5 -9.5l-244 -940q-2 -4 2 -9t8 -5h150q10 0 10 12v230q0 10 10 10h158q10 0 10 -10v-230q0 -12 10 -12h158q12 0 12 -10v-158q0 -10 -12 -10h-158q-10 0 -10 -11v-266q0 -10 -10 -10h-158q-10 0 -10 10v266 q0 10 -10 11h-338q-11 0 -11 10z" />
<glyph unicode="5" d="M102 621v800q0 10 13 11h694q10 0 10 -11v-157q0 -10 -10 -11h-516q-10 0 -10 -10v-305q0 -6 5 -9t9 -1q82 41 177 38t174 -51.5t125 -131.5t46 -175v-250q0 -70 -26.5 -136t-75.5 -115.5t-114.5 -77t-135.5 -29.5t-136.5 24.5t-116.5 74.5t-79 112.5t-31 134.5 q-2 12 11 12h157q10 0 11 -10q4 -74 57 -123t126 -47t124 54.5t51 125.5v250q0 74 -51 126t-124 54.5t-126 -47t-57 -123.5q0 -10 -11 -10h-157q-13 1 -13 13z" />
<glyph unicode="6" d="M100 358v717q0 70 28 135.5t76 115.5t113.5 78t135 29t136 -25t117 -74t80 -113.5t31.5 -135.5q0 -10 -10 -10h-158q-10 0 -12 10q-4 72 -57.5 121t-126 47t-122.5 -54t-50 -124v-209q0 -6 5 -9t9 -1q82 41 177 38t173 -51t125 -131t47 -175v-179q0 -70 -27.5 -136 t-77.5 -116.5t-117 -78t-136.5 -27.5t-136 27.5t-116.5 78t-78 116.5t-28 136zM281 358q0 -74 52 -127t125.5 -53t126 53.5t52.5 126.5v179q0 76 -52.5 128t-126 52t-125.5 -52.5t-52 -127.5v-179z" />
<glyph unicode="7" d="M102 1085v336q0 12 11 13h694q12 0 12 -13v-166q0 -2 -2 -4l-328 -1243q-4 -8 -12 -8h-182q-4 0 -8 4t-2 10l323 1227q2 4 -1 8t-9 4h-307q-10 0 -10 -10v-158q0 -10 -11 -10h-157q-11 0 -11 10z" />
<glyph unicode="8" d="M104 358v91q0 72 30 141t83 119q8 8 0 16q-53 49 -83 117.5t-30 142.5v90q0 70 28 136.5t78 116.5t116.5 77t136 27t136.5 -27t117 -77t77.5 -116.5t27.5 -136.5v-90q0 -74 -29.5 -142.5t-82.5 -117.5q-8 -8 0 -16q53 -51 82.5 -120t29.5 -140v-91q0 -70 -27.5 -137 t-77.5 -116.5t-117 -77t-136.5 -27.5t-136 27.5t-116.5 77t-78 116.5t-28 137zM285 358q0 -74 52 -127t126 -53t126 53.5t52 126.5v88q0 76 -52 128.5t-126 52.5t-126 -52.5t-52 -128.5v-88zM285 985q0 -74 52 -127t126 -53t126 53t52 127v88q0 76 -52 128t-126 52t-126 -52 t-52 -128v-88z" />
<glyph unicode="9" d="M102 895v180q0 70 28 136.5t78 116.5t116.5 77t137 27t137.5 -27t116 -77t76.5 -116.5t27.5 -136.5v-717q0 -70 -26.5 -136t-75.5 -115.5t-114.5 -77t-135.5 -29.5t-136.5 24.5t-116.5 74.5t-79 112.5t-31 134.5q-2 12 11 12h157q10 0 11 -10q4 -74 57 -123t126 -47 t124 54.5t51 125.5v209q0 6 -6 9.5t-10 1.5q-82 -43 -177.5 -39t-173 51t-125 130t-47.5 175zM283 895q0 -74 52 -126t126 -52t127 52t53 126v180q0 74 -52 126t-127 52t-127 -52t-52 -126v-180z" />
<glyph unicode=":" horiz-adv-x="532" d="M174 271q0 38 26.5 64.5t64.5 26.5t64.5 -26.5t26.5 -64.5t-26.5 -64.5t-64.5 -26.5t-64.5 26.5t-26.5 64.5zM174 906q0 38 26.5 64.5t64.5 26.5t64.5 -26.5t26.5 -64.5t-26.5 -64.5t-64.5 -26.5t-64.5 26.5t-26.5 64.5z" />
<glyph unicode=";" horiz-adv-x="532" d="M174 271q0 38 26.5 64.5t64.5 26.5t64.5 -26.5t26.5 -65.5q0 -12 -4 -24l-41 -156h-45v90q-39 0 -65.5 26.5t-26.5 64.5zM174 906q0 38 26.5 64.5t64.5 26.5t64.5 -26.5t26.5 -64.5t-26.5 -64.5t-64.5 -26.5t-64.5 26.5t-26.5 64.5z" />
<glyph unicode="&#x3c;" d="M246 588v184q0 4 4 8l414 328q4 4 9 1t5 -9v-158q0 -4 -4 -6l-316 -256l316 -260q4 -2 4 -6v-158q0 -6 -5 -9t-9 1l-414 334q-4 2 -4 6z" />
<glyph unicode="=" d="M139 227v152q0 14 15 14h614q14 0 14 -14v-152q0 -14 -14 -14h-614q-15 0 -15 14zM139 563v152q0 14 15 14h614q14 0 14 -14v-152q0 -14 -14 -14h-614q-15 0 -15 14z" />
<glyph unicode="&#x3e;" d="M246 256v158q0 4 4 6l315 256l-315 260q-4 2 -4 6v158q0 6 5 9t9 -1l414 -334q4 -2 4 -6v-184q0 -4 -4 -9l-414 -327q-4 -4 -9 -1t-5 9z" />
<glyph unicode="?" d="M98 1087q0 150 105.5 256.5t256 106.5t257 -106.5t106.5 -256t-106 -256.5l-129 -129q-51 -53 -53 -127v-303h-181v303q0 150 107 256l127 130q53 51 53 126.5t-52 129t-128 53.5t-129 -53.5t-53 -129.5h-181zM354 89q0 38 27 64.5t64.5 26.5t64.5 -26.5t27 -63.5 q0 -10 -2 -18q-6 -31 -32 -51.5t-59 -20.5q-37 0 -63.5 25.5t-26.5 63.5z" />
<glyph unicode="@" horiz-adv-x="1464" d="M96 270v455q0 262 186.5 448.5t449.5 186.5t448.5 -186.5t185.5 -448.5v-455q0 -113 -80 -191.5t-192 -78.5q-102 0 -181 68q-78 -68 -182 -68q-113 0 -192.5 79t-79.5 191v455q0 113 79.5 192.5t192.5 79.5q47 0 92 -16v16h181v-727v-2q2 -39 28.5 -63.5t61.5 -24.5 q39 0 65.5 26.5t26.5 63.5v455q0 188 -133 320.5t-320.5 132.5t-320.5 -132.5t-133 -320.5v-455h-183zM96 270h183q0 -186 133 -318t319 -132h455v-182h-455q-262 0 -448.5 185t-186.5 447zM641 270q0 -37 26.5 -63.5t63.5 -26.5t63.5 25.5t28.5 60.5v2v2v455 q0 37 -26.5 63.5t-64.5 26.5t-64.5 -26.5t-26.5 -63.5v-455z" />
<glyph unicode="A" d="M104 4l267 1411q0 8 10 8h160q10 0 12 -8l264 -1411v-2q0 -10 -10 -10h-158q-10 0 -10 8l-47 252q-2 8 -10 8h-240q-10 0 -12 -8l-47 -252q0 -8 -11 -8h-157q-13 2 -11 12zM369 453q-2 -12 8 -15h2h164q10 0 10 13v2l-82 438q-2 9 -9 8h-3q-6 -2 -8 -8z" />
<glyph unicode="B" d="M102 10v1411q0 10 11 11h303q84 0 159.5 -35t131.5 -101q86 -105 85 -236q0 -19 -1 -39q-14 -155 -136 -255q78 -59 121 -148.5t43 -187.5q0 -178 -126 -304t-304 -126h-276q-11 0 -11 10zM283 190q0 -12 10 -12h96q104 0 177 74t73 178.5t-72.5 177t-177.5 72.5h-96 q-10 0 -10 -10v-480zM283 870q0 -10 10 -10h123q82 0 139 57.5t57 139.5t-57 139t-139 57h-123q-10 0 -10 -10v-373z" />
<glyph unicode="C" d="M102 360v717q0 145 101.5 249t247.5 110h11q140 0 245 -98q109 -101 112 -251q0 -10 -10 -10h-158q-10 0 -12 10q-4 74 -59 123q-51 45 -118 46q-6 0 -11 -1q-72 -4 -120 -55t-48 -123v-717q0 -74 52 -126t126 -52q72 0 123 48.5t55 119.5q2 10 12 10h158q10 0 10 -10 q-4 -145 -108.5 -246.5t-249.5 -101.5q-147 0 -253 105.5t-106 252.5z" />
<glyph unicode="D" d="M102 10v1411q0 10 11 11h348q147 0 252.5 -104.5t105.5 -252.5v-717q0 -150 -105.5 -254t-252.5 -104h-348q-11 0 -11 10zM283 190q0 -12 10 -12h168q74 0 126 53.5t52 126.5v717q0 74 -52 126t-126 52h-168q-10 0 -10 -10v-1053z" />
<glyph unicode="E" d="M102 10v1411q0 10 11 11h696q10 0 10 -11v-157q0 -10 -10 -11h-516q-10 0 -10 -10v-426q0 -12 10 -12h336q10 0 10 -10v-158q0 -10 -10 -10h-336q-10 0 -10 -11v-426q0 -12 10 -12h516q10 0 10 -10v-158q0 -10 -10 -10h-696q-11 0 -11 10z" />
<glyph unicode="F" d="M102 10v1411q0 10 11 11h696q10 0 10 -11v-157q0 -10 -10 -11h-516q-10 0 -10 -10v-426q0 -12 10 -12h336q10 0 10 -10v-158q0 -10 -10 -10h-336q-10 0 -10 -11v-606q0 -10 -13 -10h-157q-11 0 -11 10z" />
<glyph unicode="G" d="M102 360v715q0 145 101.5 250t247.5 109h11q140 0 245 -98q109 -101 112 -249q0 -12 -10 -12h-158q-10 0 -12 10q-4 74 -59 124q-51 46 -118 47q-5 0 -11 -1q-72 -4 -120 -56t-48 -124v-715q0 -76 52 -128t126 -52t126 52.5t52 127.5v203q0 12 -10 12h-158q-10 0 -10 11 v157q0 10 10 11h338q10 0 10 -11v-731q0 -10 -10 -10h-158q-12 0 -12 10v19q0 12 -10 12q-2 0 -4 -2q-78 -39 -164 -39q-147 0 -253 104t-106 254z" />
<glyph unicode="H" d="M102 10q0 -10 11 -10h157q12 0 13 10v606q0 10 10 11h336q10 0 10 -11v-606q0 -10 12 -10h158q10 0 10 10v1411q0 10 -10 11h-158q-12 0 -12 -11v-604q0 -12 -10 -12h-336q-10 0 -10 12v604q0 10 -13 11h-157q-10 0 -11 -11v-1411z" />
<glyph unicode="I" horiz-adv-x="534" d="M178 10v1411q0 10 10 11h158q10 0 10 -11v-1411q0 -10 -10 -10h-158q-10 0 -10 10z" />
<glyph unicode="J" d="M102 346q0 12 11 12h157q10 0 13 -10q4 -74 59 -124q51 -46 118 -46h11q72 4 120 56.5t48 123.5v1063q0 10 12 11h158q10 0 10 -11v-1063q0 -145 -101.5 -249.5t-246.5 -108.5h-11q-140 0 -245 97q-109 102 -113 249z" />
<glyph unicode="K" d="M106 10v1411q0 10 11 11h157q10 0 11 -11v-487q0 -10 12 -10q6 0 8 4l305 499q2 4 8 5h185h6q6 -4 6 -10q0 -3 -2 -7l-424 -694q-2 -4 0 -10l424 -695q2 -2 2 -6q0 -10 -12 -10h-185q-6 0 -8 6l-305 498q-6 10 -14 4q-6 -2 -6 -8v-490l-11 -10h-157q-11 0 -11 10z" />
<glyph unicode="L" d="M102 10v1411q0 10 11 11h157q12 0 13 -11v-1231q0 -12 10 -12h516q10 0 10 -10v-158q0 -10 -10 -10h-696q-11 0 -11 10z" />
<glyph unicode="M" d="M102 10v1411q0 10 11 11h161q8 0 11 -7l166 -485q4 -10 14 -6q4 0 6 6l166 485q2 6 10 7h162q10 0 10 -11v-1411q0 -10 -10 -10h-158q-12 0 -12 10v805q0 12 -10 12q-8 0 -11 -8l-147 -432q-2 -4 -6 -6q-10 -4 -14 6l-148 432q-4 10 -14 6q-6 -2 -6 -10v-805 q0 -10 -13 -10h-157q-11 0 -11 10z" />
<glyph unicode="N" d="M102 10v1411q0 10 11 11h161q8 0 11 -7l333 -872q4 -10 15 -6q6 4 6 10v864q0 10 12 11h158q10 0 10 -11v-1411q0 -10 -10 -10h-162q-8 0 -10 6l-334 873q-4 10 -14 6q-6 -2 -6 -11v-864q0 -10 -13 -10h-157q-11 0 -11 10z" />
<glyph unicode="O" d="M102 358v717q0 147 105.5 252t253 105t253 -104.5t105.5 -252.5v-717q0 -150 -105.5 -254t-253 -104t-253 104t-105.5 254zM283 358q0 -74 52 -127t126 -53t126 53.5t52 126.5v717q0 74 -52 126t-126 52t-126 -52t-52 -126v-717z" />
<glyph unicode="P" d="M102 10v1411q0 10 11 11h276q178 0 304 -125t126 -303.5t-126 -304.5t-304 -126h-96q-10 0 -10 -10v-553q0 -10 -13 -10h-157q-11 0 -11 10zM283 762q0 -10 10 -10h96q104 0 178 73.5t74 177t-73.5 177t-178.5 73.5h-96q-10 0 -10 -10v-481z" />
<glyph unicode="Q" d="M102 358v717q0 147 104.5 252t252.5 105h5q146 0 250 -103q105 -104 105 -254v-715q0 -102 -53 -190q-2 -4 -2 -8l51 -148v-4q0 -10 -10 -10h-168q-6 0 -10 8l-4 17q-4 10 -15 6h-2q-70 -31 -145 -31q-147 0 -253 104t-106 254zM283 358q0 -74 52 -127t126 -53t126 53.5 t52 126.5v717q0 74 -52 126t-126 52t-126 -52t-52 -126v-717z" />
<glyph unicode="R" d="M102 10v1411q0 10 11 11h276q113 0 210 -54.5t157 -150.5q59 -98 62 -213v-13q0 -108 -50 -202q-53 -100 -154 -162q-8 -6 -4 -12l203 -611q2 -2 2 -4q0 -10 -12 -10h-166q-6 0 -10 6l-187 561q-2 8 -12 6q-18 -2 -39 -2h-96q-12 0 -12 -10v-551l-11 -10h-157 q-11 0 -11 10zM283 762q0 -10 10 -10h96q104 0 178 72.5t74 177t-73.5 177t-178.5 72.5h-96q-10 0 -10 -10v-479z" />
<glyph unicode="S" d="M102 348q4 -150 113 -251q104 -97 246 -97h11q148 4 250 113q97 104 97 244v12q-2 74 -33.5 141.5t-87.5 116.5l-356 313q-55 49 -59 125q0 6 -1 11q0 67 46 118q49 55 123 59q6 0 11 1q67 0 118 -46q55 -49 59 -125q2 -8 12 -8h158q10 0 10 10q-4 147 -112 250 q-103 98 -243 98h-14q-148 -5 -250 -113q-97 -103 -98 -246v-11q2 -74 34 -141.5t87 -116.5l357 -313q55 -49 59 -123v-12q0 -67 -45 -117q-49 -55 -123 -61h-13q-65 0 -116 45q-55 50 -59 124q-2 10 -13 10h-157q-11 0 -11 -10z" />
<glyph unicode="T" d="M102 1264q0 -10 11 -11h247q10 0 11 -10v-1233q0 -10 12 -10h156q12 0 12 10v1233q0 10 10 10h248q10 0 10 11v157q0 10 -10 11h-696q-10 0 -11 -11v-157z" />
<glyph unicode="U" d="M102 358v1063q0 10 11 11h157q12 0 13 -11v-1063q0 -74 52 -127t126 -53t126 53.5t52 126.5v1063q0 10 12 11h158q10 0 10 -11v-1063q0 -150 -105.5 -254t-253 -104t-253 104t-105.5 254z" />
<glyph unicode="V" d="M104 1419v2q0 10 11 11h157q8 0 11 -9l178 -888q2 -12 12 -11q6 2 8 11l158 888q0 8 10 9h158q12 -2 10 -13l-250 -1411q0 -8 -10 -8h-162q-8 0 -10 8z" />
<glyph unicode="W" horiz-adv-x="1329" d="M104 1415l277 -1405q2 -10 10 -10h160q6 0 10 8l117 311q2 8 8 7q8 4 12 -7l115 -311q2 -8 10 -8h160q8 0 10 10l236 1403q2 10 -10 10h-160q-8 0 -10 -8l-185 -885q-2 -8 -8 -10q-8 -2 -12 8l-146 373q-6 14 -10 10q-8 -4 -10 -10l-180 -397l8 16q-10 0 -12 10l-209 887 q-2 8 -11 8h-157q-13 0 -13 -10z" />
<glyph unicode="X" d="M106 14l209 699v6l-209 700v2q0 10 11 11h164q8 0 12 -7l158 -532q2 -10 14 -6q4 2 6 6l158 532q4 6 12 7h164h2q10 -2 8 -13l-209 -700q-2 -2 0 -6l209 -699v-4q0 -10 -10 -10h-164q-8 0 -12 8l-158 531q-2 10 -12 6q-6 0 -8 -6l-158 -531q-4 -8 -12 -8h-164h-2 q-11 4 -9 14zM315 713q1 2 1 3.5t-1 2.5v-6z" />
<glyph unicode="Y" d="M106 1419v2q0 10 11 11h164q8 0 10 -7l131 -497q4 -10 14 -8q6 2 6 8l185 497q2 6 10 7h168h2q10 -4 8 -15l-518 -1411l-10 -6h-168h-4q-10 4 -6 14l215 586v6z" />
<glyph unicode="Z" d="M102 10v166q0 2 2 6l508 1057q4 8 -4 14h-6h-489q-10 0 -11 11v157q0 10 11 11h696q10 0 10 -11v-166q0 -2 -2 -4l-508 -1056q-4 -10 4 -15q2 -2 6 -2h490q10 0 10 -10v-158q0 -10 -10 -10h-696q-11 0 -11 10z" />
<glyph unicode="[" d="M260 14v1405q0 14 14 15h373q14 0 15 -15v-159q0 -14 -15 -15h-188q-14 0 -15 -14v-1026q0 -14 15 -15h188q14 0 15 -14v-162q0 -14 -15 -14h-373q-14 0 -14 14z" />
<glyph unicode="\" d="M129 1413l492 -1405q2 -8 14 -8h164h4q14 4 10 18l-494 1405q-2 8 -12 9h-164h-4q-14 -5 -10 -19z" />
<glyph unicode="]" d="M260 14q0 -14 14 -14h373q14 0 15 14v1405q0 14 -15 15h-373q-14 0 -14 -15v-159q0 -14 14 -15h189q14 0 14 -14v-1026q0 -14 -14 -15h-189q-14 0 -14 -14v-162z" />
<glyph unicode="^" d="M174 1494q-2 5 0 9l184 230q4 2 9 2h184q4 0 6 -2l182 -230q2 -4 0 -9t-8 -5h-158q-4 0 -8 2l-106 133l-111 -133q-4 -2 -8 -2h-158q-6 0 -8 5z" />
<glyph unicode="_" d="M0 0h922v-119h-922v119z" />
<glyph unicode="`" d="M279 1638h182l180 -272h-135z" />
<glyph unicode="a" horiz-adv-x="966" d="M53 316.5q0 132.5 93.5 224.5t224.5 92h137q37 0 63.5 26.5t26.5 65.5v45q0 55 -40 95t-97 40h-45q-55 0 -95 -39t-40 -96v-45h-183v45q0 129 90.5 221t219.5 96h53q133 0 225 -93t92 -224v-45v-2v-453q0 -37 26.5 -63.5t65.5 -26.5v-180q-115 0 -194 82 q-92 -82 -215 -82h-90q-131 0 -224.5 92t-93.5 224.5zM236 316.5q0 -56.5 39.5 -96.5t95.5 -40h92q55 0 95 40t40 95v152q-45 -14 -90 -14h-137q-55 0 -95 -40t-40 -96.5z" />
<glyph unicode="b" d="M98 0v362v363v725h181v-412q84 49 182 49q150 0 256 -106.5t106 -255.5v-363q0 -152 -106.5 -257t-255.5 -105q-98 0 -182 47v-47h-181zM279 362q0 -76 53 -129t128 -53t128 53.5t53 128.5v363q0 76 -53 128t-128 52t-128 -52t-53 -128v-363z" />
<glyph unicode="c" d="M98 362v363q0 152 105.5 257t256 105t257 -105t106.5 -257h-182q0 76 -52 129t-128 53t-129 -53t-53 -129v-363q0 -76 53 -128t129 -52t128 53.5t52 126.5v3h182v-3q0 -150 -106.5 -256t-257 -106t-256 106t-105.5 256z" />
<glyph unicode="d" d="M96 362v363q0 150 106.5 256t256.5 106q98 0 182 -49v412h180v-1450h-180v47q-84 -47 -182 -47q-150 0 -256.5 105t-106.5 257zM279 362q0 -76 53 -129t128 -53t128 53.5t53 128.5v363q0 76 -53 128t-128 52t-128 -52t-53 -128v-363z" />
<glyph unicode="e" d="M96 362v361q0 152 106.5 258t257 106t256 -106.5t105.5 -255.5v-90v-182h-542v-91q0 -76 53 -129t127 -53q61 0 108 36t66 91l164 -78q-41 -102 -132.5 -165.5t-205.5 -63.5q-150 0 -256.5 105t-106.5 257zM279 635h362v90q0 76 -53 128t-128 52t-128 -52t-53 -128v-90z " />
<glyph unicode="f" d="M96 725v180h183v273q0 113 79.5 192.5t192.5 79.5t191.5 -80t78.5 -192h-55h-125q0 39 -26.5 65.5t-64.5 26.5t-64.5 -26.5t-26.5 -65.5v-273h272v-180h-272v-725h-180v725h-183z" />
<glyph unicode="g" d="M96 -90q0 147 127 227q-35 63 -35 135q0 90 54 162q-143 109 -144 291q0 150 105.5 256t255.5 106h362v-182h-47q49 -82 49 -180h-182q0 76 -53 128t-129 52t-128 -52t-52 -128t52 -129t128 -53t129 53t53 129h182q0 -150 -106.5 -256.5t-255.5 -106.5q-39 0 -65.5 -26.5 t-26.5 -64.5t26.5 -64.5t63.5 -26.5h90q113 0 192.5 -78.5t79.5 -189.5l-180 -2q0 39 -26.5 64.5t-65.5 25.5h-180q-37 0 -63.5 -25.5t-26.5 -63.5t26.5 -64.5t63.5 -26.5h180q39 0 65.5 26.5t26.5 63.5l180 2q0 -113 -79.5 -193.5t-192.5 -80.5h-180q-113 0 -193 79.5 t-80 192.5z" />
<glyph unicode="h" d="M96 0v1450h183v-412q84 49 180 49q152 0 257 -106.5t105 -255.5v-725h-180v725q0 76 -53 128t-128 52t-128 -52t-53 -128v-725h-183z" />
<glyph unicode="i" horiz-adv-x="534" d="M131 270v817h180v-817q0 -37 27 -63.5t63 -26.5l2 -180q-115 0 -193.5 78.5t-78.5 191.5zM131 1360q0 37 26.5 63.5t63.5 26.5t63.5 -26.5t26.5 -63.5t-26.5 -63.5t-63.5 -26.5t-63.5 26.5t-26.5 63.5z" />
<glyph unicode="j" d="M188 -90h183q0 -37 26.5 -63.5t63.5 -26.5t63.5 26.5t26.5 63.5v1177h182v-1175q0 -115 -80 -194.5t-192.5 -79.5t-192.5 79.5t-80 192.5zM551 1360q0 37 26.5 63.5t63.5 26.5t63.5 -26.5t26.5 -63.5h-90h90q0 -37 -26.5 -63.5t-63.5 -26.5t-63.5 26.5t-26.5 63.5z" />
<glyph unicode="k" d="M98 0v1450h181v-942l335 579h209l-315 -544l315 -543h-209l-211 362l-124 -217v-145h-181z" />
<glyph unicode="l" horiz-adv-x="557" d="M96 270v1180h183v-1180q0 -37 26.5 -63.5t63.5 -26.5h90v-180h-90q-113 0 -193 78.5t-80 191.5z" />
<glyph unicode="m" horiz-adv-x="1462" d="M96 0v725v362h180v-49q84 49 183 49q164 0 272 -122q109 123 270 122q152 0 258.5 -106.5t106.5 -255.5v-725h-182v412v313q0 76 -53.5 128t-128 52t-128 -52t-53.5 -128v-725h-182v412v313q0 76 -53.5 128t-128 52t-128 -52t-53.5 -128v-313v-412h-180z" />
<glyph unicode="n" d="M96 0v725v362h183v-49q84 49 180 49q152 0 258 -106.5t106 -255.5v-725h-182v412v313q0 76 -53 128t-128 52t-128 -52t-53 -128v-313v-412h-183z" />
<glyph unicode="o" d="M96 362v361q0 152 106.5 258t257 106t256 -106.5t105.5 -255.5v-363q0 -152 -105.5 -257t-256 -105t-257 105t-106.5 257zM279 362q0 -76 53 -129t128 -53t128 53.5t53 128.5v3v360q0 76 -53 128t-128 52t-128 -52t-53 -128v-363z" />
<glyph unicode="p" d="M96 -362v724v363v362h183v-49q84 49 180 49q152 0 257 -106.5t105 -257.5v-361q0 -152 -105.5 -257t-256.5 -105q-96 0 -180 47v-409h-183zM279 362q0 -76 53 -129t128 -53t128 53.5t53 128.5v363q0 76 -53 128t-128 52t-128 -53t-53 -127v-363z" />
<glyph unicode="q" d="M96 362v361q0 152 106.5 258t256.5 106q98 0 182 -49v49h182v-362v-363v-724h-182v409q-84 -47 -182 -47q-150 0 -256.5 105t-106.5 257zM279 362q0 -76 53 -129t128 -53t128 53.5t53 128.5v363q0 74 -53 127t-128 53t-128 -52t-53 -128v-363z" />
<glyph unicode="r" horiz-adv-x="690" d="M94 0v725v362h180v-49q84 49 183 49h180v-272h-180v90q-76 0 -129.5 -52t-53.5 -128v-313v-412h-180z" />
<glyph unicode="s" horiz-adv-x="827" d="M96 317v45h180v-45q0 -57 40 -97t96.5 -40t96.5 40t40 97q0 55 -40 95.5t-95 40.5q-131 0 -224.5 93t-93.5 224t93.5 223t224.5 92t223 -92t92 -223v-47h-180v47q0 55 -40 95t-96.5 40t-96.5 -40t-40 -96t40 -96t98 -40q131 0 223 -92t92 -224q0 -133 -92 -225t-223 -92 t-224.5 92t-93.5 225z" />
<glyph unicode="t" horiz-adv-x="557" d="M51 905v182h90v363h183v-363h180v-182h-180v-635q0 -37 26.5 -63.5t63.5 -26.5h90v-180h-90q-113 0 -193 79t-80 191v635h-90z" />
<glyph unicode="u" d="M96 362v725h183v-411v-314q0 -76 53 -129t128 -53t128 53.5t53 128.5v314v411h182v-725v-362h-182v47q-84 -47 -182 -47q-150 0 -256.5 105t-106.5 257z" />
<glyph unicode="v" d="M98 1087h181l182 -907l180 907h182l-217 -1087h-145h-146z" />
<glyph unicode="w" horiz-adv-x="1458" d="M94 1087h180l183 -907l180 907h182l180 -907l183 907h182l-219 -1087h-146h-143l-127 635l-127 -635h-145h-146z" />
<glyph unicode="x" d="M96 0l273 543l-273 544h183l180 -362l182 362h182l-272 -544l272 -543h-182l-182 362l-180 -362h-183z" />
<glyph unicode="y" d="M96 -254l133 131q18 -47 66 -55q10 -2 20 -2q26 0 49 15q32 22 39 59l3 16l-236 1177h180l146 -720l139 720h188l-248 -1228q-18 -96 -91.5 -158.5t-170.5 -62.5q-27 0 -53 6q-101 18 -164 102z" />
<glyph unicode="z" d="M96 0v180l500 725h-500v182h727v-182l-499 -725h499v-180h-727z" />
<glyph unicode="{" d="M215 578q0 -8 8 -9q63 -4 109.5 -53t46.5 -113v-245q0 -135 93 -230.5t226 -99.5q10 0 11 10v144q0 10 -11 10q-61 4 -107 53t-46 113v245q0 102 -73 175t-175 73q102 0 175 73t73 175v246q0 63 46 112.5t107 53.5q10 0 11 10v143q0 10 -11 11q-133 -4 -226 -99.5 t-93 -230.5v-246q0 -63 -46 -112.5t-110 -53.5q-8 0 -8 -8v-147z" />
<glyph unicode="|" d="M373 -180v1784q0 10 12 10h154q12 0 12 -10v-1784q0 -12 -12 -13h-154q-12 1 -12 13z" />
<glyph unicode="}" d="M213 -18q0 10 10 10q61 4 107.5 53t46.5 113v245q0 102 72.5 175t175.5 73q-102 0 -175 73t-73 175v246q0 63 -46 112.5t-108 53.5q-10 0 -10 10v143q0 10 10 11q133 -4 226.5 -99.5t93.5 -230.5v-246q0 -63 46 -112.5t109 -53.5q8 0 9 -8v-147q0 -8 -9 -9 q-63 -4 -109 -53t-46 -113v-245q0 -135 -93.5 -230.5t-226.5 -99.5q-10 0 -10 10v144z" />
<glyph unicode="~" d="M63 631l177 47q10 -37 41.5 -56.5t68.5 -9.5l142 37l34 10q109 29 206 -28.5t126 -165.5l-176 -47q-8 37 -41 56.5t-70 8.5l-141 -37l-35 -10q-109 -29 -206 28.5t-126 166.5z" />
<glyph />
<glyph />
<glyph />
<glyph />
<glyph />
<glyph unicode="&#x85;" />
<glyph />
<glyph />
<glyph />
<glyph />
<glyph />
<glyph />
<glyph />
<glyph />
<glyph />
<glyph />
<glyph />
<glyph />
<glyph />
<glyph />
<glyph />
<glyph />
<glyph />
<glyph />
<glyph />
<glyph />
<glyph />
<glyph />
<glyph />
<glyph />
<glyph />
<glyph />
<glyph unicode="&#xa0;" />
<glyph unicode="&#xa1;" />
<glyph unicode="&#xa2;" />
<glyph unicode="&#xa3;" d="M96 0v180q39 0 65.5 26.5t26.5 63.5v365h-92v180h92v318q0 131 92.5 224t223.5 93h2q131 0 224 -93t93 -224h-182q0 57 -40 97t-96 40t-96 -40t-40 -97v-318h227v-180h-227v-365q0 -45 -15 -90h469v-180h-727z" />
<glyph unicode="&#xa4;" />
<glyph unicode="&#xa5;" />
<glyph unicode="&#xa6;" />
<glyph unicode="&#xa7;" horiz-adv-x="1662" d="M98 0v362l418 725h209l-90 -157l219 -379l4 -8l316 544h208l-90 -157l219 -379q53 -88 54 -189q0 -152 -106.5 -257t-258.5 -105q-106 0 -194 56.5t-134 150.5l-12 -23q-47 -86 -131 -135t-184 -49q-106 0 -194.5 56.5t-133.5 150.5zM362 362q0 -76 53.5 -129t128 -53 t128 53.5t53.5 128.5q0 47 -23 91l-172 297l-168 -291v-97zM1020 362q0 -76 53 -129t128 -53t128 53.5t53 128.5q0 47 -24 91l-170 297l-168 -291v-97z" />
<glyph unicode="&#xa8;" />
<glyph unicode="&#xa9;" horiz-adv-x="1466" d="M96 633v180h2q0 262 185.5 448.5t448.5 186.5t448.5 -186.5t185.5 -448.5v-178q0 -264 -185.5 -449.5t-448.5 -185.5t-448.5 185.5t-185.5 447.5h-2zM279 633q0 -186 133 -319.5t320.5 -133.5t320.5 133t133 322v178q0 186 -133 319.5t-320.5 133.5t-320.5 -133.5 t-133 -319.5v-180zM414 635h182q0 -57 40 -97t96 -40t96 40t40 97v180q0 57 -40 97t-96 40t-96 -40t-40 -97h-182q0 131 93 224.5t224 93.5t224.5 -94.5t93.5 -223.5v-180q0 -131 -93.5 -224.5t-222.5 -93.5h-2q-131 0 -224 92.5t-93 225.5z" />
<glyph unicode="&#xaa;" />
<glyph unicode="&#xab;" d="M111 588v184q0 4 4 8l334 264q4 4 9 1t5 -9v-157q0 -4 -4 -7l-236 -192l236 -195l4 -8v-158q0 -6 -5 -8t-9 0l-334 271q-4 2 -4 6zM459 588v184q0 4 4 8l334 264q4 4 9 1t5 -9v-157q0 -4 -4 -7l-236 -192l236 -195l4 -8v-158q0 -6 -5 -8t-9 0l-334 271q-4 2 -4 6z" />
<glyph unicode="&#xac;" />
<glyph unicode="&#xad;" />
<glyph unicode="&#xae;" />
<glyph unicode="&#xaf;" />
<glyph unicode="&#xb0;" horiz-adv-x="532" d="M106 1478.5q0 65.5 45.5 111.5t110.5 48h4q66 0 112 -47t46 -112.5t-46 -111.5t-112.5 -46t-113 46t-46.5 111.5zM201 1478.5q0 -26.5 19.5 -45t45 -18.5t45 18.5t19.5 45t-19.5 45t-45 18.5t-45 -18.5t-19.5 -45z" />
<glyph unicode="&#xb1;" />
<glyph unicode="&#xb2;" />
<glyph unicode="&#xb3;" />
<glyph unicode="&#xb4;" />
<glyph unicode="&#xb5;" d="M96 -270v632v91v634h183v-411v-223v-91q0 -76 53 -129t128 -53t128 53.5t53 128.5v314v411h182v-725v-362h-182v47q-84 -47 -181.5 -47t-180.5 47v-317h-183z" />
<glyph unicode="&#xb6;" />
<glyph unicode="&#xb7;" />
<glyph unicode="&#xb8;" />
<glyph unicode="&#xb9;" />
<glyph unicode="&#xba;" />
<glyph unicode="&#xbb;" d="M111 319v158q0 6 4 8l235 191l-235 196l-4 7v157q0 6 5 9.5t9 -1.5l334 -268q4 -4 4 -8v-184q0 -4 -4 -6l-334 -267q-4 -2 -9 0t-5 8zM459 319v158q0 6 4 8l235 191l-235 196l-4 7v157q0 6 5 9.5t9 -1.5l334 -268q4 -4 4 -8v-184q0 -4 -4 -6l-334 -267q-4 -2 -9 0t-5 8z " />
<glyph unicode="&#xbc;" />
<glyph unicode="&#xbd;" />
<glyph unicode="&#xbe;" />
<glyph unicode="&#xbf;" />
<glyph unicode="&#xc0;" d="M104 12l267 1411q0 8 10 9h160q10 0 12 -9l264 -1411v-2q0 -10 -10 -10h-158q-10 0 -10 8l-47 252q-2 8 -10 8h-240q-10 0 -12 -8l-47 -252q0 -8 -11 -8h-157q-13 2 -11 12zM293 1737h182l180 -273h-135zM369 461q-2 -10 8 -12h2h164q10 0 10 10v2l-82 438q-2 10 -12 8 q-6 -2 -8 -8z" />
<glyph unicode="&#xc1;" d="M104 12l267 1411q0 8 10 9h160q10 0 12 -9l264 -1411v-2q0 -10 -10 -10h-158q-10 0 -10 8l-47 252q-2 8 -10 8h-240q-10 0 -12 -8l-47 -252q0 -8 -11 -8h-157q-13 2 -11 12zM295 1464l182 273h182l-227 -273h-137zM369 461q-2 -10 8 -12h2h164q10 0 10 10v2l-82 438 q-2 10 -12 8q-6 -2 -8 -8z" />
<glyph unicode="&#xc2;" d="M104 12l267 1411q0 8 10 9h160q10 0 12 -9l264 -1411v-2q0 -10 -10 -10h-158q-10 0 -10 8l-47 252q-2 8 -10 8h-240q-10 0 -12 -8l-47 -252q0 -8 -11 -8h-157q-13 2 -11 12zM186 1464l183 273h182l180 -273h-135l-137 162l-135 -162h-138zM369 461q-2 -10 8 -12h2h164 q10 0 10 10v2l-82 438q-2 10 -12 8q-6 -2 -8 -8z" />
<glyph unicode="&#xc3;" />
<glyph unicode="&#xc4;" d="M104 12l267 1411q0 8 10 9h160q10 0 12 -9l264 -1411v-2q0 -10 -10 -10h-158q-10 0 -10 8l-47 252q-2 8 -10 8h-240q-10 0 -12 -8l-47 -252q0 -8 -11 -8h-157q-13 2 -11 12zM256 1645.5q0 37.5 26.5 64.5t64.5 27t64.5 -27t26.5 -65q0 -8 -2 -19q-6 -31 -31.5 -51.5 t-56.5 -20.5q-39 0 -65.5 27t-26.5 64.5zM369 461q-2 -10 8 -12h2h164q10 0 10 10v2l-82 438q-2 10 -12 8q-6 -2 -8 -8zM483 1645.5q0 37.5 27 64.5t64.5 27t64.5 -27t27 -65q0 -8 -2 -19q-6 -31 -32 -51.5t-59 -20.5q-37 0 -63.5 27t-26.5 64.5z" />
<glyph unicode="&#xc5;" />
<glyph unicode="&#xc6;" d="M-152 0l512 1432h713v-203h-409v-412h307v-203h-307v-411h409v-203h-610v305l-311 2l-103 -307h-201zM229 510h234v616h-29z" />
<glyph unicode="&#xc7;" />
<glyph unicode="&#xc8;" d="M102 10v1411q0 10 11 11h696q10 0 10 -11v-157q0 -10 -10 -11h-516q-10 0 -10 -10v-426q0 -12 10 -12h336q10 0 10 -10v-158q0 -10 -10 -10h-336q-10 0 -10 -11v-426q0 -12 10 -12h516q10 0 10 -10v-158q0 -10 -10 -10h-696q-11 0 -11 10zM293 1737h182l180 -273h-135z " />
<glyph unicode="&#xc9;" d="M102 10v1411q0 10 11 11h696q10 0 10 -11v-157q0 -10 -10 -11h-516q-10 0 -10 -10v-426q0 -12 10 -12h336q10 0 10 -10v-158q0 -10 -10 -10h-336q-10 0 -10 -11v-426q0 -12 10 -12h516q10 0 10 -10v-158q0 -10 -10 -10h-696q-11 0 -11 10zM295 1464l182 273h182 l-227 -273h-137z" />
<glyph unicode="&#xca;" d="M102 10v1411q0 10 11 11h696q10 0 10 -11v-157q0 -10 -10 -11h-516q-10 0 -10 -10v-426q0 -12 10 -12h336q10 0 10 -10v-158q0 -10 -10 -10h-336q-10 0 -10 -11v-426q0 -12 10 -12h516q10 0 10 -10v-158q0 -10 -10 -10h-696q-11 0 -11 10zM186 1464l183 273h182l180 -273 h-135l-137 162l-135 -162h-138z" />
<glyph unicode="&#xcb;" d="M102 10v1411q0 10 11 11h696q10 0 10 -11v-157q0 -10 -10 -11h-516q-10 0 -10 -10v-426q0 -12 10 -12h336q10 0 10 -10v-158q0 -10 -10 -10h-336q-10 0 -10 -11v-426q0 -12 10 -12h516q10 0 10 -10v-158q0 -10 -10 -10h-696q-11 0 -11 10zM256 1645.5q0 37.5 26.5 64.5 t64.5 27t64.5 -27t26.5 -65q0 -8 -2 -19q-6 -31 -31.5 -51.5t-56.5 -20.5q-39 0 -65.5 27t-26.5 64.5zM483 1645.5q0 37.5 27 64.5t64.5 27t64.5 -27t27 -65q0 -8 -2 -19q-6 -31 -32 -51.5t-59 -20.5q-37 0 -63.5 27t-26.5 64.5z" />
<glyph unicode="&#xcc;" d="M293 1737h182l180 -273h-135zM369 10v1411q0 10 10 11h158q10 0 10 -11v-1411q0 -10 -10 -10h-158q-10 0 -10 10z" />
<glyph unicode="&#xcd;" d="M295 1464l182 273h182l-227 -273h-137zM369 10v1411q0 10 10 11h158q10 0 10 -11v-1411q0 -10 -10 -10h-158q-10 0 -10 10z" />
<glyph unicode="&#xce;" d="M186 1464l183 273h182l180 -273h-135l-137 162l-135 -162h-138zM369 10v1411q0 10 10 11h158q10 0 10 -11v-1411q0 -10 -10 -10h-158q-10 0 -10 10z" />
<glyph unicode="&#xcf;" d="M256 1645.5q0 37.5 26.5 64.5t64.5 27t64.5 -27t26.5 -65q0 -8 -2 -19q-6 -31 -31.5 -51.5t-56.5 -20.5q-39 0 -65.5 27t-26.5 64.5zM369 10v1411q0 10 10 11h158q10 0 10 -11v-1411q0 -10 -10 -10h-158q-10 0 -10 10zM483 1645.5q0 37.5 27 64.5t64.5 27t64.5 -27 t27 -65q0 -8 -2 -19q-6 -31 -32 -51.5t-59 -20.5q-37 0 -63.5 27t-26.5 64.5z" />
<glyph unicode="&#xd0;" />
<glyph unicode="&#xd1;" />
<glyph unicode="&#xd2;" d="M102 358v717q0 147 105.5 252t253 105t253 -104.5t105.5 -252.5v-717q0 -150 -105.5 -254t-253 -104t-253 104t-105.5 254zM283 358q0 -74 52 -127t126 -53t126 53.5t52 126.5v717q0 74 -52 126t-126 52t-126 -52t-52 -126v-717zM293 1737h182l180 -273h-135z" />
<glyph unicode="&#xd3;" d="M102 358v717q0 147 105.5 252t253 105t253 -104.5t105.5 -252.5v-717q0 -150 -105.5 -254t-253 -104t-253 104t-105.5 254zM283 358q0 -74 52 -127t126 -53t126 53.5t52 126.5v717q0 74 -52 126t-126 52t-126 -52t-52 -126v-717zM295 1464l182 273h182l-227 -273h-137z " />
<glyph unicode="&#xd4;" d="M102 358v717q0 147 105.5 252t253 105t253 -104.5t105.5 -252.5v-717q0 -150 -105.5 -254t-253 -104t-253 104t-105.5 254zM186 1464l183 273h182l180 -273h-135l-137 162l-135 -162h-138zM186 1464l183 273h182l180 -273h-135l-137 162l-135 -162h-138zM283 358 q0 -74 52 -127t126 -53t126 53.5t52 126.5v717q0 74 -52 126t-126 52t-126 -52t-52 -126v-717z" />
<glyph unicode="&#xd5;" d="M102 358v717q0 147 105.5 252t253 105t253 -104.5t105.5 -252.5v-717q0 -150 -105.5 -254t-253 -104t-253 104t-105.5 254zM283 358q0 -74 52 -127t126 -53t126 53.5t52 126.5v717q0 74 -52 126t-126 52t-126 -52t-52 -126v-717z" />
<glyph unicode="&#xd6;" d="M102 358v717q0 147 105.5 252t253 105t253 -104.5t105.5 -252.5v-717q0 -150 -105.5 -254t-253 -104t-253 104t-105.5 254zM256 1645.5q0 37.5 26.5 64.5t64.5 27t64.5 -27t26.5 -65q0 -8 -2 -19q-6 -31 -31.5 -51.5t-56.5 -20.5q-39 0 -65.5 27t-26.5 64.5zM283 358 q0 -74 52 -127t126 -53t126 53.5t52 126.5v717q0 74 -52 126t-126 52t-126 -52t-52 -126v-717zM483 1645.5q0 37.5 27 64.5t64.5 27t64.5 -27t27 -65q0 -8 -2 -19q-6 -31 -32 -51.5t-59 -20.5q-37 0 -63.5 27t-26.5 64.5z" />
<glyph unicode="&#xd7;" />
<glyph unicode="&#xd8;" />
<glyph unicode="&#xd9;" d="M102 358v1063q0 10 11 11h157q12 0 13 -11v-1063q0 -74 52 -127t126 -53t126 53.5t52 126.5v1063q0 10 12 11h158q10 0 10 -11v-1063q0 -150 -105.5 -254t-253 -104t-253 104t-105.5 254zM293 1737h182l180 -273h-135z" />
<glyph unicode="&#xda;" d="M102 358v1063q0 10 11 11h157q12 0 13 -11v-1063q0 -74 52 -127t126 -53t126 53.5t52 126.5v1063q0 10 12 11h158q10 0 10 -11v-1063q0 -150 -105.5 -254t-253 -104t-253 104t-105.5 254zM295 1464l182 273h182l-227 -273h-137z" />
<glyph unicode="&#xdb;" d="M102 358v1063q0 10 11 11h157q12 0 13 -11v-1063q0 -74 52 -127t126 -53t126 53.5t52 126.5v1063q0 10 12 11h158q10 0 10 -11v-1063q0 -150 -105.5 -254t-253 -104t-253 104t-105.5 254zM186 1464l183 273h182l180 -273h-135l-137 162l-135 -162h-138z" />
<glyph unicode="&#xdc;" d="M102 358v1063q0 10 11 11h157q12 0 13 -11v-1063q0 -74 52 -127t126 -53t126 53.5t52 126.5v1063q0 10 12 11h158q10 0 10 -11v-1063q0 -150 -105.5 -254t-253 -104t-253 104t-105.5 254zM256 1645.5q0 37.5 26.5 64.5t64.5 27t64.5 -27t26.5 -65q0 -8 -2 -19 q-6 -31 -31.5 -51.5t-56.5 -20.5q-39 0 -65.5 27t-26.5 64.5zM483 1645.5q0 37.5 27 64.5t64.5 27t64.5 -27t27 -65q0 -8 -2 -19q-6 -31 -32 -51.5t-59 -20.5q-37 0 -63.5 27t-26.5 64.5z" />
<glyph unicode="&#xdd;" />
<glyph unicode="&#xde;" />
<glyph unicode="&#xdf;" d="M96 0v1133q0 131 93.5 224t225.5 93t225 -93t93 -224q0 -113 -69 -199q158 -109 157 -301v-271q0 -152 -105.5 -257t-256.5 -105h-90v180h90q76 0 129 53.5t53 128.5v271q0 76 -53 128t-129 52h-90v182h47q55 0 95 40t40 97.5t-40 97.5t-96.5 40t-96 -40t-39.5 -97v-1133 h-183z" />
<glyph unicode="&#xe0;" horiz-adv-x="1007" d="M94 316.5q0 132.5 93.5 224.5t224.5 92h137q37 0 63.5 26.5t26.5 65.5v45q0 55 -40 95t-97 40h-45q-55 0 -95 -39t-40 -96v-45h-183v45q0 129 90 221t220 96h53q133 0 225 -93t92 -224v-45v-2v-453q0 -37 26.5 -63.5t65.5 -26.5v-180q-115 0 -194 82q-92 -82 -215 -82 h-90q-131 0 -224.5 92t-93.5 224.5zM276 316.5q0 -56.5 40 -96.5t96 -40h92q55 0 95 40t40 95v152q-45 -14 -90 -14h-137q-55 0 -95.5 -40t-40.5 -96.5zM279 1450h180l182 -272h-135z" />
<glyph unicode="&#xe1;" horiz-adv-x="1007" d="M94 316.5q0 132.5 93.5 224.5t224.5 92h137q37 0 63.5 26.5t26.5 65.5v45q0 55 -40 95t-97 40h-45q-55 0 -95 -39t-40 -96v-45h-183v45q0 129 90 221t220 96h53q133 0 225 -93t92 -224v-45v-2v-453q0 -37 26.5 -63.5t65.5 -26.5v-180q-115 0 -194 82q-92 -82 -215 -82 h-90q-131 0 -224.5 92t-93.5 224.5zM276 316.5q0 -56.5 40 -96.5t96 -40h92q55 0 95 40t40 95v152q-45 -14 -90 -14h-137q-55 0 -95.5 -40t-40.5 -96.5zM279 1178h137l225 272h-180z" />
<glyph unicode="&#xe2;" horiz-adv-x="1007" d="M94 316.5q0 132.5 93.5 224.5t224.5 92h137q37 0 63.5 26.5t26.5 65.5v45q0 55 -40 95t-97 40h-45q-55 0 -95 -39t-40 -96v-45h-183v45q0 129 90 221t220 96h53q133 0 225 -93t92 -224v-45v-2v-453q0 -37 26.5 -63.5t65.5 -26.5v-180q-115 0 -194 82q-92 -82 -215 -82 h-90q-131 0 -224.5 92t-93.5 224.5zM156 1178l182 272h180l182 -272h-137l-135 163l-135 -163h-137zM276 316.5q0 -56.5 40 -96.5t96 -40h92q55 0 95 40t40 95v152q-45 -14 -90 -14h-137q-55 0 -95.5 -40t-40.5 -96.5z" />
<glyph unicode="&#xe3;" />
<glyph unicode="&#xe4;" horiz-adv-x="1007" d="M94 316.5q0 132.5 93.5 224.5t224.5 92h137q37 0 63.5 26.5t26.5 65.5v45q0 55 -40 95t-97 40h-45q-55 0 -95 -39t-40 -96v-45h-183v45q0 129 90 221t220 96h53q133 0 225 -93t92 -224v-45v-2v-453q0 -37 26.5 -63.5t65.5 -26.5v-180q-115 0 -194 82q-92 -82 -215 -82 h-90q-131 0 -224.5 92t-93.5 224.5zM250 1305.5q0 37.5 26.5 64.5t64.5 27t64.5 -27t26.5 -63q0 -10 -2 -19q-6 -33 -31.5 -53.5t-56.5 -20.5q-39 0 -65.5 27t-26.5 64.5zM276 316.5q0 -56.5 40 -96.5t96 -40h92q55 0 95 40t40 95v152q-45 -14 -90 -14h-137q-55 0 -95.5 -40 t-40.5 -96.5zM477 1305.5q0 37.5 26.5 64.5t64.5 27t64.5 -27t26.5 -63q0 -10 -2 -19q-6 -33 -31.5 -53.5t-58.5 -20.5q-37 0 -63.5 27t-26.5 64.5z" />
<glyph unicode="&#xe5;" />
<glyph unicode="&#xe6;" horiz-adv-x="1282" d="M96 270v92q0 113 80 193t193 80h135h45l2 90v45q0 55 -40 95t-96.5 40t-96 -40t-39.5 -95h-183q0 131 93.5 224t224.5 93q133 0 227 -96q92 96 227 96q131 0 224.5 -93t93.5 -224v-135v-47v-135h-455v-91v-45q0 -57 40 -97t96.5 -40t96.5 40t40 97h182q0 -133 -93.5 -225 t-224.5 -92q-145 0 -239 109q-106 -109 -260 -109v180q74 0 127 51.5t55 124.5v6v91h-47h-76h-14h-45q-37 0 -63.5 -27t-26.5 -64v-92q0 -37 26.5 -63.5t63.5 -26.5v-180q-113 0 -193 78.5t-80 191.5zM731 635h273v135q0 57 -40 96t-96.5 39t-96.5 -39t-40 -96v-45v-90z" />
<glyph unicode="&#xe7;" d="M96 350v363q0 152 106.5 257t257 105t256 -105.5t105.5 -256.5h-180q0 76 -53 129t-128 53t-128 -53.5t-53 -128.5v-363q0 -76 53 -128t128 -52t128 52t53 128l180 2q0 -127 -76.5 -225t-193.5 -127v-100v-93q0 -37 -26.5 -63.5t-65.5 -26.5h-146h-82v183h138v100 q-119 29 -196 127t-77 223z" />
<glyph unicode="&#xe8;" d="M96 362v361q0 152 106.5 258t257 106t256 -106.5t105.5 -255.5v-90v-182h-542v-91q0 -76 53 -129t127 -53q61 0 108 36t66 91l164 -78q-41 -102 -132.5 -165.5t-205.5 -63.5q-150 0 -256.5 105t-106.5 257zM279 635h362v90q0 76 -53 128t-128 52t-128 -52t-53 -128v-90z M279 1450h180l182 -272h-137z" />
<glyph unicode="&#xe9;" d="M96 362v361q0 152 106.5 258t257 106t256 -106.5t105.5 -255.5v-90v-182h-542v-91q0 -76 53 -129t127 -53q61 0 108 36t66 91l164 -78q-41 -102 -132.5 -165.5t-205.5 -63.5q-150 0 -256.5 105t-106.5 257zM279 635h362v90q0 76 -53 128t-128 52t-128 -52t-53 -128v-90z M279 1178l180 272h182l-227 -272h-135z" />
<glyph unicode="&#xea;" d="M96 362v361q0 152 106.5 258t257 106t256 -106.5t105.5 -255.5v-90v-182h-542v-91q0 -76 53 -129t127 -53q61 0 108 36t66 91l164 -78q-41 -102 -132.5 -165.5t-205.5 -63.5q-150 0 -256.5 105t-106.5 257zM186 1178l183 272h182l180 -272h-135l-137 163l-135 -163h-138z M279 635h362v90q0 76 -53 128t-128 52t-128 -52t-53 -128v-90z" />
<glyph unicode="&#xeb;" d="M96 362v361q0 152 106.5 258t257 106t256 -106.5t105.5 -255.5v-90v-182h-542v-91q0 -76 53 -129t127 -53q61 0 108 36t66 91l164 -78q-41 -102 -132.5 -165.5t-205.5 -63.5q-150 0 -256.5 105t-106.5 257zM250 1305.5q0 37.5 26.5 64.5t64.5 27t64.5 -27t26.5 -63 q0 -10 -2 -19q-6 -33 -31.5 -53.5t-56.5 -20.5q-39 0 -65.5 27t-26.5 64.5zM279 635h362v90q0 76 -53 128t-128 52t-128 -52t-53 -128v-90zM477 1305.5q0 37.5 26.5 64.5t64.5 27t64.5 -27t26.5 -63q0 -10 -2 -19q-6 -33 -31.5 -53.5t-58.5 -20.5q-37 0 -63.5 27t-26.5 64.5 z" />
<glyph unicode="&#xec;" horiz-adv-x="534" d="M53 1450h180l183 -272h-135zM131 270v817h180v-817q0 -37 27 -63.5t63 -26.5l2 -180q-115 0 -193.5 78.5t-78.5 191.5z" />
<glyph unicode="&#xed;" horiz-adv-x="534" d="M96 1178h137l226 272h-180zM131 270v817h180v-817q0 -37 27 -63.5t63 -26.5l2 -180q-115 0 -193.5 78.5t-78.5 191.5z" />
<glyph unicode="&#xee;" horiz-adv-x="534" d="M-49 1178l180 272h180l183 -272h-138l-135 163l-135 -163h-135zM131 270v817h180v-817q0 -37 27 -63.5t63 -26.5l2 -180q-115 0 -193.5 78.5t-78.5 191.5z" />
<glyph unicode="&#xef;" horiz-adv-x="532" d="M61 1360q0 37 27 63.5t64.5 26.5t64.5 -26.5t27 -63.5q0 -10 -2 -19q-6 -31 -31 -51t-57 -20q-39 0 -66 26.5t-27 63.5zM154 270v817h180v-817q0 -37 26.5 -63.5t63.5 -26.5l2 -180q-115 0 -193.5 78.5t-78.5 191.5zM289 1360q0 37 26.5 63.5t64.5 26.5t64.5 -26.5 t26.5 -63.5q0 -10 -2 -19q-6 -31 -31.5 -51t-58.5 -20q-37 0 -63.5 26.5t-26.5 63.5z" />
<glyph unicode="&#xf0;" />
<glyph unicode="&#xf1;" />
<glyph unicode="&#xf2;" d="M96 362v361q0 152 106.5 258t257 106t256 -106.5t105.5 -255.5v-363q0 -152 -105.5 -257t-256 -105t-257 105t-106.5 257zM252 1737h203l153 -254h-151zM279 362q0 -76 53 -129t128 -53t128 53.5t53 128.5v3v360q0 76 -53 128t-128 52t-128 -52t-53 -128v-363z" />
<glyph unicode="&#xf3;" d="M96 362v361q0 152 106.5 258t257 106t256 -106.5t105.5 -255.5v-363q0 -152 -105.5 -257t-256 -105t-257 105t-106.5 257zM279 362q0 -76 53 -129t128 -53t128 53.5t53 128.5v3v360q0 76 -53 128t-128 52t-128 -52t-53 -128v-363zM279 1178h137l225 272h-180z" />
<glyph unicode="&#xf4;" d="M96 362v361q0 152 106.5 258t257 106t256 -106.5t105.5 -255.5v-363q0 -152 -105.5 -257t-256 -105t-257 105t-106.5 257zM186 1178l183 272h180l182 -272h-137l-135 163l-135 -163h-138zM279 362q0 -76 53 -129t128 -53t128 53.5t53 128.5v3v360q0 76 -53 128t-128 52 t-128 -52t-53 -128v-363z" />
<glyph unicode="&#xf5;" d="M96 362v361q0 152 106.5 258t257 106t256 -106.5t105.5 -255.5v-363q0 -152 -105.5 -257t-256 -105t-257 105t-106.5 257zM279 362q0 -76 53 -129t128 -53t128 53.5t53 128.5v3v360q0 76 -53 128t-128 52t-128 -52t-53 -128v-363z" />
<glyph unicode="&#xf6;" d="M96 362v361q0 152 106.5 258t257 106t256 -106.5t105.5 -255.5v-363q0 -152 -105.5 -257t-256 -105t-257 105t-106.5 257zM250 1305.5q0 37.5 26.5 64.5t64.5 27t64.5 -27t26.5 -63q0 -10 -2 -19q-6 -33 -31.5 -53.5t-56.5 -20.5q-39 0 -65.5 27t-26.5 64.5zM279 362 q0 -76 53 -129t128 -53t128 53.5t53 128.5v3v360q0 76 -53 128t-128 52t-128 -52t-53 -128v-363zM477 1305.5q0 37.5 26.5 64.5t64.5 27t64.5 -27t26.5 -63q0 -10 -2 -19q-6 -33 -31.5 -53.5t-58.5 -20.5q-37 0 -63.5 27t-26.5 64.5z" />
<glyph unicode="&#xf7;" horiz-adv-x="917" d="M186 453v182h545v-182h-545zM360 232.5q0 37.5 27 64.5t64.5 27t64.5 -27t27 -64.5t-27 -64.5t-64.5 -27t-64.5 27t-27 64.5zM360 867q0 38 27 64.5t64.5 26.5t64.5 -26.5t27 -64.5t-27 -64.5t-64.5 -26.5t-64.5 26.5t-27 64.5z" />
<glyph unicode="&#xf8;" d="M96 0l62 162q-61 90 -62 200v725q0 150 106.5 256.5t256.5 106.5q88 0 168 -39l14 39h180l-59 -162q59 -90 59 -201v-725q0 -152 -105.5 -257t-256.5 -105q-88 0 -166 39l-14 -39h-183zM279 483l282 754q-47 33 -102 33q-74 0 -127 -53.5t-53 -129.5v-604zM358 211 q45 -31 101 -31q76 0 129 53.5t53 128.5v3v602z" />
<glyph unicode="&#xf9;" d="M96 362v725h183v-411v-314q0 -76 53 -129t128 -53t128 53.5t53 128.5v314v411h180v-725v-362h-180v47q-84 -47 -182 -47q-150 0 -256.5 105t-106.5 257zM279 1450h180l182 -272h-137z" />
<glyph unicode="&#xfa;" d="M96 362v725h183v-411v-314q0 -76 53 -129t128 -53t128 53.5t53 128.5v314v411h180v-725v-362h-180v47q-84 -47 -182 -47q-150 0 -256.5 105t-106.5 257zM279 1178l180 272h182l-227 -272h-135z" />
<glyph unicode="&#xfb;" d="M96 362v725h183v-411v-314q0 -76 53 -129t128 -53t128 53.5t53 128.5v314v411h180v-725v-362h-180v47q-84 -47 -182 -47q-150 0 -256.5 105t-106.5 257zM186 1178l183 272h182l180 -272h-135l-137 163l-135 -163h-138z" />
<glyph unicode="&#xfc;" d="M96 362v725h183v-411v-314q0 -76 53 -129t128 -53t128 53.5t53 128.5v314v411h180v-725v-362h-180v47q-84 -47 -182 -47q-150 0 -256.5 105t-106.5 257zM250 1305.5q0 37.5 26.5 64.5t64.5 27t64.5 -27t26.5 -63q0 -10 -2 -19q-6 -33 -31.5 -53.5t-56.5 -20.5 q-39 0 -65.5 27t-26.5 64.5zM477 1305.5q0 37.5 26.5 64.5t64.5 27t64.5 -27t26.5 -63q0 -10 -2 -19q-6 -33 -31.5 -53.5t-58.5 -20.5q-37 0 -63.5 27t-26.5 64.5z" />
<glyph unicode="&#xfd;" />
<glyph unicode="&#xfe;" />
<glyph unicode="&#xff;" />
<glyph unicode="&#x152;" d="M-78 307v819q0 129 80 218.5t203 89.5q102 0 180 -78v78h614v-205h-409v-410h307v-205h-307v-409h409v-205h-614v78q-33 -33 -49.5 -45.5t-49 -22.5t-81.5 -10q-123 0 -203 89t-80 218zM127 307q0 -43 30.5 -72.5t73.5 -29.5t72 29.5t29 72.5v289v242v288q0 43 -29 73 t-72 30t-73.5 -30t-30.5 -73v-288v-242v-289z" />
<glyph unicode="&#x153;" horiz-adv-x="1282" d="M94 317l2 453q0 131 92.5 224t223.5 93q135 0 227 -96q94 96 227 96q131 0 224.5 -93t93.5 -224v-317h-455v-136q0 -57 40 -97t96.5 -40t96 40t39.5 97h183q0 -133 -93.5 -225t-224.5 -92q-133 0 -227 94q-92 -94 -225 -94h-2q-131 0 -224.5 92t-93.5 225zM276 317 q0 -57 40 -97t96.5 -40t96.5 40t40 97v136v182v139q-2 55 -42 93t-95.5 38t-95.5 -40t-40 -95v-453zM729 635h272v135q0 55 -39.5 95t-95 40t-95.5 -39t-42 -94v-137z" />
<glyph unicode="&#x178;" />
<glyph unicode="&#x2c6;" d="M174 1494q-2 5 0 9l184 230q4 2 9 2h184q4 0 6 -2l182 -230q2 -4 0 -9t-8 -5h-158q-4 0 -8 2l-106 133l-111 -133q-4 -2 -8 -2h-158q-6 0 -8 5z" />
<glyph unicode="&#x2dc;" horiz-adv-x="634" d="M-398 336l177 47q10 -37 41.5 -56.5t68.5 -9.5l142 37l34 10q109 29 206 -28.5t126 -165.5l-176 -47q-8 37 -41 56.5t-70 8.5l-141 -37l-35 -10q-109 -29 -206 28.5t-126 166.5z" />
<glyph unicode="&#x2000;" horiz-adv-x="868" />
<glyph unicode="&#x2001;" horiz-adv-x="1736" />
<glyph unicode="&#x2002;" horiz-adv-x="868" />
<glyph unicode="&#x2003;" horiz-adv-x="1736" />
<glyph unicode="&#x2004;" horiz-adv-x="577" />
<glyph unicode="&#x2005;" horiz-adv-x="434" />
<glyph unicode="&#x2006;" horiz-adv-x="288" />
<glyph unicode="&#x2007;" horiz-adv-x="288" />
<glyph unicode="&#x2008;" horiz-adv-x="217" />
<glyph unicode="&#x2009;" horiz-adv-x="346" />
<glyph unicode="&#x200a;" horiz-adv-x="96" />
<glyph unicode="&#x2010;" d="M186 453v182h545v-182h-545z" />
<glyph unicode="&#x2011;" d="M186 453v182h545v-182h-545z" />
<glyph unicode="&#x2012;" d="M186 453v182h545v-182h-545z" />
<glyph unicode="&#x2013;" horiz-adv-x="1024" d="M186 453v182h648v-182h-648z" />
<glyph unicode="&#x2014;" horiz-adv-x="2048" d="M186 453v182h1672v-182h-1672z" />
<glyph unicode="&#x2018;" d="M279 1638h182l180 -272h-135z" />
<glyph unicode="&#x2019;" horiz-adv-x="532" d="M182 1327q-8 35 11.5 64.5t53.5 38t64.5 -10t38.5 -53.5t-10 -63l-76 -123q-2 -4 -10 -4h-12q-12 0 -13 10v76q0 6 -4 10l-4 2q-31 18 -39 53z" />
<glyph unicode="&#x201c;" d="M267 1327q-9 35 9.5 64.5t53.5 38t64.5 -10t38.5 -53.5t-9 -63l-74 -123q-4 -4 -10 -4h-14q-10 0 -11 10v76q0 6 -6 10l-4 2q-29 18 -38 53zM488.5 1327q-9.5 35 9 64.5t53.5 38t64.5 -10t39 -53.5t-9.5 -63l-74 -123q-4 -4 -10 -4h-14q-10 0 -10 10v76q0 6 -7 10l-4 2 q-28 18 -37.5 53z" />
<glyph unicode="&#x201d;" d="M267 1327q-9 35 9.5 64.5t53.5 38t64.5 -10t38.5 -53.5t-9 -63l-74 -123q-4 -4 -10 -4h-14q-10 0 -11 10v76q0 6 -6 10l-4 2q-29 18 -38 53zM488.5 1327q-9.5 35 9 64.5t53.5 38t64.5 -10t39 -53.5t-9.5 -63l-74 -123q-4 -4 -10 -4h-14q-10 0 -10 10v76q0 6 -7 10l-4 2 q-28 18 -37.5 53z" />
<glyph unicode="&#x2026;" horiz-adv-x="571" d="M385 89q0 38 26.5 64.5t64.5 26.5t64.5 -26.5t26.5 -63.5q0 -10 -2 -18q-6 -31 -31.5 -51.5t-56.5 -20.5q-39 0 -65.5 25.5t-26.5 63.5zM194 89q0 38 26.5 64.5t64.5 26.5t64.5 -26.5t26.5 -63.5q0 -10 -2 -18q-6 -31 -31.5 -51.5t-56.5 -20.5q-39 0 -65.5 25.5 t-26.5 63.5zM4 89q0 38 26.5 64.5t64.5 26.5t64.5 -26.5t26.5 -63.5q0 -10 -2 -18q-6 -31 -31.5 -51.5t-56.5 -20.5q-39 0 -65.5 25.5t-26.5 63.5z" />
<glyph unicode="&#x202f;" horiz-adv-x="346" />
<glyph unicode="&#x2039;" d="M246 588v184q0 4 4 8l414 328q4 4 9 1t5 -9v-158q0 -4 -4 -6l-316 -256l316 -260q4 -2 4 -6v-158q0 -6 -5 -9t-9 1l-414 334q-4 2 -4 6z" />
<glyph unicode="&#x203a;" d="M246 256v158q0 4 4 6l315 256l-315 260q-4 2 -4 6v158q0 6 5 9t9 -1l414 -334q4 -2 4 -6v-184q0 -4 -4 -9l-414 -327q-4 -4 -9 -1t-5 9z" />
<glyph unicode="&#x205f;" horiz-adv-x="434" />
<glyph unicode="&#x20ac;" horiz-adv-x="1097" d="M96 506l2 4l54 154q4 10 12 8h121v90h-174q-14 0 -15 16l56 158q4 10 12 8h121v133q0 145 101 249t247 110q147 4 256 -97q113 -106 112 -252q0 -10 -10 -10h-157q-10 0 -13 10q-16 86 -59 123q-55 49 -129 45q-72 -4 -120 -55t-48 -123v-131h405q14 0 15 -16l-2 -4 l-54 -152q-4 -12 -12 -12h-352v-88h309q14 0 14 -17l-2 -4l-53 -153q-4 -12 -12 -13h-256v-127q0 -74 52 -126t126 -52q72 0 123 47q39 37 55 121q2 10 13 10h157q10 0 10 -10q0 -141 -108 -248q-104 -100 -250 -100q-147 0 -252.5 105.5t-105.5 252.5v129h-174 q-15 1 -15 17z" />
<glyph unicode="&#x2122;" horiz-adv-x="1843" d="M1024 10v1411q0 10 11 11h161q8 0 11 -7l166 -485q4 -10 14 -6q4 0 6 6l166 485q2 6 10 7h162q10 0 10 -11v-1411q0 -10 -10 -10h-158q-12 0 -12 10v805q0 12 -10 12q-8 0 -11 -8l-147 -432q-2 -4 -6 -6q-10 -4 -14 6l-148 432q-4 10 -14 6q-6 -2 -6 -10v-805 q0 -10 -13 -10h-157q-11 0 -11 10zM102 1264q0 -10 11 -11h247q10 0 11 -10v-1233q0 -10 12 -10h156q12 0 12 10v1233q0 10 10 10h248q10 0 10 11v157q0 10 -10 11h-696q-10 0 -11 -11v-157z" />
<glyph unicode="&#xe000;" horiz-adv-x="1085" d="M0 1085h1085v-1085h-1085v1085z" />
<glyph unicode="&#xfb01;" horiz-adv-x="1456" d="M1053 270v817h180v-817q0 -37 27 -63.5t63 -26.5l2 -180q-115 0 -193.5 78.5t-78.5 191.5zM1053 1360q0 37 26.5 63.5t63.5 26.5t63.5 -26.5t26.5 -63.5t-26.5 -63.5t-63.5 -26.5t-63.5 26.5t-26.5 63.5zM96 725v180h183v273q0 113 79.5 192.5t192.5 79.5t191.5 -80 t78.5 -192h-55h-125q0 39 -26.5 65.5t-64.5 26.5t-64.5 -26.5t-26.5 -65.5v-273h272v-180h-272v-725h-180v725h-183z" />
<glyph unicode="&#xfb02;" horiz-adv-x="1478" d="M1018 270v1180h183v-1180q0 -37 26.5 -63.5t63.5 -26.5h90v-180h-90q-113 0 -193 78.5t-80 191.5zM96 725v180h183v273q0 113 79.5 192.5t192.5 79.5t191.5 -80t78.5 -192h-55h-125q0 39 -26.5 65.5t-64.5 26.5t-64.5 -26.5t-26.5 -65.5v-273h272v-180h-272v-725h-180 v725h-183z" />
<glyph unicode="&#xfb03;" horiz-adv-x="2377" d="M1974 270v817h180v-817q0 -37 27 -63.5t63 -26.5l2 -180q-115 0 -193.5 78.5t-78.5 191.5zM1974 1360q0 37 26.5 63.5t63.5 26.5t63.5 -26.5t26.5 -63.5t-26.5 -63.5t-63.5 -26.5t-63.5 26.5t-26.5 63.5zM1018 725v180h183v273q0 113 79.5 192.5t192.5 79.5t191.5 -80 t78.5 -192h-55h-125q0 39 -26.5 65.5t-64.5 26.5t-64.5 -26.5t-26.5 -65.5v-273h272v-180h-272v-725h-180v725h-183zM96 725v180h183v273q0 113 79.5 192.5t192.5 79.5t191.5 -80t78.5 -192h-55h-125q0 39 -26.5 65.5t-64.5 26.5t-64.5 -26.5t-26.5 -65.5v-273h272v-180 h-272v-725h-180v725h-183z" />
<glyph unicode="&#xfb04;" horiz-adv-x="2400" d="M1939 270v1180h183v-1180q0 -37 26.5 -63.5t63.5 -26.5h90v-180h-90q-113 0 -193 78.5t-80 191.5zM1018 725v180h183v273q0 113 79.5 192.5t192.5 79.5t191.5 -80t78.5 -192h-55h-125q0 39 -26.5 65.5t-64.5 26.5t-64.5 -26.5t-26.5 -65.5v-273h272v-180h-272v-725h-180 v725h-183zM96 725v180h183v273q0 113 79.5 192.5t192.5 79.5t191.5 -80t78.5 -192h-55h-125q0 39 -26.5 65.5t-64.5 26.5t-64.5 -26.5t-26.5 -65.5v-273h272v-180h-272v-725h-180v725h-183z" />
</font>
</defs>
</svg>
